<?xml version="1.0" encoding="utf-8"?>
<!-- Generator: Adobe Illustrator 21.0.2, SVG Export Plug-In . SVG Version: 6.00 Build 0)  -->
<svg version="1.1" id="Layer_1" xmlns="http://www.w3.org/2000/svg" xmlns:xlink="http://www.w3.org/1999/xlink" x="0px" y="0px"
	 viewBox="0 0 573.7 573.7" style="enable-background:new 0 0 573.7 573.7;" xml:space="preserve">
<style type="text/css">
	.st0{fill:#F29100;}
	.st1{fill:#666666;}
</style>
<path class="st0" d="M2.3,63.4c167.5,0,334.9,0,502.4,0c-0.1,69.8,0.2,139.7-0.1,209.5c-2.6-2.5-4.9-5.3-7-8.2
	c3.5-5-1.1-10.6-1.6-15.8c-0.5,1.1-1.6,3.4-2.1,4.5c0.5-2.4,0.9-4.9,1.4-7.3c-0.5-3.6-1-7.2-1.4-10.8l-2.7,1.1
	c0.7-5.2,1.1-10.5,1.9-15.7c-1.3-1.3-2.5-2.6-3.7-3.8c0.8-1.5,1.5-3.1,2.4-4.6l-3.2,2.6c0.4-4.1,0.9-8.3-1.5-11.9l2.6-1.5
	c-4.6-2.4-4.8-7.3-4.9-11.9l1.9-1.6c-2-4.3-3.1-9-5.2-13.3c0.3-0.2,1.1-0.6,1.4-0.8c-1.1-1.8-2.1-3.6-3.2-5.4
	c2.5-2.8,3.6-6.5,3.1-10.2c-1.1-15.7-3.4-32.7-13.8-45.2c-4.5-5.8-11.7-8-18.7-8.9c-3.5,0.8-7.2,1.6-10.7,2.4c2.7,1,5.5,1.9,8.3,2.9
	c-4.1,1.3-10.8,0.5-11.3,6.2c-1.9,2.6-3.6,5.3-5.3,8l0.9,1.1c-6.4,4.8-11.7,11-15.3,18.2l-5.7-3.2c-3.8,0.8-7.5,1.7-11.2,2.6
	c-0.3,0.7-0.9,2-1.1,2.7c-11.7,1.1-22,6.7-32.6,11.2c-3.2,1.7-6.4,3.6-9.3,5.7c-9.8,1.7-17.2,8.4-24.1,15
	c-7.7-1.8-12.6,5.5-19.3,7.6c-1.8,3.8-4.3,6.9-9,3.8l3.2,2.8c-3,0.4-5.9,0.8-8.9,1.2c0.4,0.6,1.1,1.8,1.5,2.4
	c-1.1,0.6-3.3,1.6-4.4,2.1c-0.2-1.1-0.5-3.6-0.7-4.8c-1.2,2.1-2.4,4.2-3.6,6.3c-2.3-0.6-4.6-1.2-6.9-1.8c-3.2,3.8-6.6,7.4-10.4,10.6
	c-0.1,1.3-0.4,3.9-0.5,5.2c-0.6-0.8-2-2.5-2.6-3.4c-2-0.3-4-0.6-5.9-0.9l-5,2.8c0.1,3.3,0,6.5-0.4,9.8c0.6,2.1,1.3,4.1,1.9,6.2
	l-6.1-0.5c0.6,1.3,1.6,3.9,2.2,5.3c-0.6-0.7-1.7-2.1-2.3-2.7c-2.1,0.1-4.3,0.1-6.5,0.1c0.2,1.8,0.6,5.4,0.8,7.2
	c-2.4-0.3-4.7-0.4-7.1-0.7c0.6,3.4,1,6.9,1.3,10.3c-1.9-1.6-3.7-3.4-5.3-5.4l-8.2,1.4c-0.9,3.2-1.8,6.4-2.5,9.6
	c-1-2-1.9-3.9-2.8-5.9c-2.2,2.9-3.9,6-3.8,9.8c-0.8-0.8-2.4-2.3-3.2-3.1c-0.1,1.4-0.2,4.2-0.3,5.6c-2.3,1.8-4.7,3.5-7,5.3
	c-2.7-3.1-5.6-6-9.5-7.5c1.9,4.9,3.1,10,3.6,15.1c-2.6-1.6-5.1-3.1-7.7-4.6c1.4,2.3,2.9,4.5,4.5,6.8c-1.3-0.7-3.7-2.1-4.9-2.8
	c-0.9,2.4-2.5,4.6-4.6,6.2c-1.2-1.4-2.4-2.8-3.6-4.2c0.4,1.3,1.1,3.8,1.5,5.1c-3.9-0.2-7.8-0.2-11.6-0.4c-0.3,4.3-0.7,8.5-1,12.8
	c0.9,0.1,2.7,0.3,3.6,0.3l-3.9,0.9c-1.7-3.3-3.4-6.6-5.1-9.8c-1.6-1.3-3.1-2.5-4.6-3.8c2.3,4.5,4.2,9.1,5.7,13.9
	c-3.8-2.6-7.5-5-11.2-7.7c1.4,2.9,2.9,5.9,4.5,8.8c-5.2,0.9-11.2,1.4-13.8,6.7c-0.4-1.6-1.1-4.9-1.5-6.5c-0.4,1.3-1.2,3.9-1.6,5.1
	l-2.6,0.1l0.8,1.7c-4.1,3.6,0,7.2,3.9,8.4c0.3-0.8,0.9-2.4,1.1-3.2c2,2.6,4,5.1,6.1,7.7c0.3-1.5,1-4.4,1.3-5.8
	c2.5,3.4,6.3,5.5,10.2,2.7c0.3,0.2,0.9,0.5,1.1,0.7c0.2-0.7,0.5-2.1,0.6-2.9c3,1.3,5.8,3.6,9.2,3.7c3.3-0.4,5.6-3,8-4.9
	c0.3,0.6,0.8,1.8,1.1,2.5c0.5-0.9,1.5-2.6,2.1-3.4c1.3,0.9,3.8,2.6,5,3.4l-0.5-2.5c2.2-1.4,4.3-2.8,6.4-4.2c0.4,0.7,1.2,2.1,1.6,2.7
	c2.1-1.6,4.7-2.6,7.4-2.8l-1.8-2.2c7.4-0.8,14.9-1.4,22.2,0c-0.4-1.4-1.1-4.2-1.6-5.6c3.4,0.4,6.9,0.8,10.4,1.2
	c1.8-2.7,3.7-5.3,5.6-7.9c1,0.8,3.2,2.6,4.2,3.4c2.4-2.3,4.8-4.6,7.2-7l5.6,0.3c-0.4-1-1-3.1-1.4-4.1c2.7,1.3,5.4,2.6,8,3.9
	c4.3-2.4,8.5-5.6,13.8-5.5c3.2-3.4,7.5-5.6,11.8-7.4v-1.9c1.6-0.9,3.3-1.7,4.9-2.6c1.4,0.2,4.3,0.6,5.7,0.8c3.1-1.3,6.3-2.5,9.4-3.7
	c1.4-2.7,2.9-5.3,4.5-7.8c3.6,0,7.5-0.1,9.7-3.5c0.8-0.3,2.4-0.9,3.1-1.2c-0.3-1.1-0.9-3.3-1.1-4.4c1.9,0.5,3.7,1.1,5.6,1.7
	c3.4-2.4,7.5-4.1,10.1-7.6c4.2-1.1,8.5-2.1,12.8-3c3.8-5.5,10.7-6.7,15.5-10.8c1,0.6,2,1.3,3.1,1.9c0.5-2.2,1.1-4.3,1.7-6.5
	c3.4-0.5,6.7-1,10.1-1.5c5.2-4.2,11.4-7.1,16.4-11.6c3.3,1.2,7,1.2,10.3-0.1c0.3,1.8,0.7,3.7,1.1,5.5c-4.3-1.1-8.5,0-9.8,4.8
	c-0.4,0-1.1-0.1-1.5-0.1c-0.3,1.4-0.9,4-1.1,5.4c-1.7-0.7-3.4-1.3-5.1-2c0,1.1,0.3,3.5,0.3,4.7c-0.7-1.1-2.3-3.4-3-4.5
	c-0.4,0.8-1.3,2.3-1.8,3.1c-0.7-0.5-2.2-1.3-2.9-1.8c0.3,0.9,1,2.6,1.3,3.4c-3.5,2-6.2,5.1-7.7,8.8c-2.6,0.9-3.9,3.1-5.1,5.4
	l-3.7-0.9c-2.2,4-4.6,7.8-6.9,11.7c-2.4,0.4-4.9,0.9-7.3,1.5l2.7,2.8c-1.9,0.8-3.8,1.6-5.6,2.4c-0.2,0.9-0.7,2.8-0.9,3.7
	c-2.5,1.6-4.8,3.5-6.8,5.7c-4.3,2.4-8.5,5.1-12.5,8l-5.5,0.8c1.4,1.7,2.7,3.4,4.1,5.3c-4.2,2.5-8.5,4.8-12.7,7.3
	c-0.7,4.6-3.1,8.5-5.3,12.3c-2,0.4-4,0.8-5.9,1.4c-3.8,5.8-5.9,13.3-12.5,16.8c0.4,0.7,1.2,2.2,1.6,3c-4.7,0.7-9.5,1.5-13.4,4.3
	c-2.8,6.3-7.1,11.9-13.5,14.9c0.5,0.8,1,1.7,1.5,2.6c-7.3,5.9-11.8,14.1-15.7,22.4c-7.9,2.4-13.4,8.6-18.1,15
	c-2,5.6-2.1,13-8.7,15.5c-3.2,4.2-6.1,8.6-9.5,12.6c0.5,0.1,1.5,0.5,2,0.6c-0.7,1.7-1.4,3.3-2,5c-1.1,0-3.3,0.2-4.4,0.2
	c-1.3,2.3-2.7,4.6-4,6.9c-2.6,2.4-5.2,4.9-7.7,7.3c1.3-0.4,4-1.1,5.4-1.5c-6.2,5.7-11.9,12.1-18.8,17c-1,2.8-1.9,5.7-2.9,8.5
	c-1.3,0.4-4,1.1-5.3,1.5c1.5,0.6,3.1,1.1,4.7,1.7c-5.3,2.9-10.4,6.7-11.9,12.9c-0.9-0.1-2.7-0.4-3.5-0.5c-0.7,4.5-0.7,10-5.5,12.2
	c-1.3,1.5-2.6,3-3.8,4.5l-3.3,0.5c-2.2,7-8.3,11.6-10.8,18.4l-2,0.2c-1,2.7-2.1,5.4-3.2,8.1c-3.7,1.2-7.8,2.1-10.3,5.2
	c-13.1,13.8-24.8,28.9-34.7,45.2c-34.8-0.1-69.6,0-104.4,0C2.3,398,2.3,230.7,2.3,63.4z"/>
<path class="st1" d="M515.9,36c0-15.9,12.9-28.9,28.9-28.9c15.9,0,28.9,12.9,28.9,28.9s-12.9,28.9-28.9,28.9l0,0
	c-15.9,0-28.8-12.8-28.9-28.7C515.9,36.1,515.9,36,515.9,36z M566,36c0-12.9-8.9-22-21.2-22c-12.6,0-21.2,9.2-21.2,22
	s8.7,22,21.2,22C557.1,58,566,48.9,566,36z M559.1,51.7h-7.6l-6.9-13.2h-5.2v13.2H533V20.5H548c8.1,0,12.1,2.2,12.1,9.5
	c0,5.7-3,8-8.5,8.4L559.1,51.7z M548.1,33.9c3.5,0.1,5.9-0.8,5.9-4.6c0-4.2-4.5-3.9-7.5-3.9h-7.1v8.5L548.1,33.9z"/>
</svg>
