<?xml version="1.0" encoding="utf-8"?>
<!-- Generator: Adobe Illustrator 21.0.2, SVG Export Plug-In . SVG Version: 6.00 Build 0)  -->
<svg version="1.1" id="Layer_1" xmlns="http://www.w3.org/2000/svg" xmlns:xlink="http://www.w3.org/1999/xlink" x="0px" y="0px"
	 viewBox="0 0 898 498" style="enable-background:new 0 0 898 498;" xml:space="preserve">
<style type="text/css">
	.st0{fill:#FFFFFF;}
	.st1{fill:#375C6C;}
	.st2{fill:#52B7C3;}
</style>
<g id="_x23_ffffffff">
	<path class="st0" d="M128.2,237.8c1.5,0,3,0,4.5,0c0,1.7,0,3.4,0,5.1c-1.5,0-3,0-4.5,0C128.2,241.2,128.2,239.5,128.2,237.8z"/>
	<path class="st0" d="M172.1,271.1c1.5,0,3,0,4.5,0c0,1.7,0,3.5,0,5.2c-1.5,0-3.1,0-4.6,0C172.1,274.5,172.1,272.8,172.1,271.1z"/>
</g>
<g id="_x23_375c6cff">
	<path class="st1" d="M212.8,118.9c6.8-7.3,14.3-13.9,22.2-19.9c4.5,6.5,8.8,13.2,13.6,19.5c1.2,1.8,3,4.2,1.6,6.4
		c-2,2.8-5.1,4.5-7.6,6.8c-15.3,13.9-27.3,31.6-33.7,51.4c-2,5.9-3.1,12-4.7,17.9c-10.1,0-20.1,0-30.2,0
		C178.4,170.5,191.6,141.2,212.8,118.9z"/>
	<path class="st1" d="M83.6,99.6c23.3,15.9,40.7,39.6,51.5,65.5c0.8,2.5,3.4,3.8,6,3.8c6.8,0.4,13.6,0.1,20.4,0.1
		c-2.2,10.6-4.4,21.1-6.6,31.7c-13.6,0-27.2,0-40.8,0c-1.8-13.1-6.2-25.7-12.8-37.1c-8.8-15.2-21-28.1-34-39.7
		C72.6,115.9,78.1,107.8,83.6,99.6z"/>
	<path class="st1" d="M152.6,108.9c6.4-1.6,13.6-0.5,19.1,3.4c8.1,5.5,11.8,16.6,8.4,25.8c-3.4,10.1-14.5,16.8-25,14.8
		c-9.6-1.1-17.9-9.2-19-18.9C134.1,123,141.8,111.5,152.6,108.9z"/>
	<path class="st1" d="M876.8,128.4c-0.1-2.8,0.2-6.4,3.3-7.4c2.5-1.1,4.3,1.2,6,2.7c-1.8,0.6-3.7,0.3-5.5,0.2
		c-1.6,1-0.8,2.9-0.9,4.4c2,0,3.9,0,5.9,0c0,0.8,0,2.3,0,3.1c-3.6,0-7.2,0-10.8,0c0-0.8,0-2.3,0-3
		C875.3,128.4,876.3,128.4,876.8,128.4z"/>
	<path class="st1" d="M355.7,128.3c2.3,0,4.5,0,6.8,0c0,2.5,0,5,0,7.4c-2.3,0-4.5,0-6.8,0C355.7,133.2,355.7,130.8,355.7,128.3z"/>
	<path class="st1" d="M367.3,128.3c2.3,0,4.6,0,6.8,0c0,2.5,0,4.9,0,7.4c-2.3,0-4.6,0-6.8,0C367.3,133.2,367.3,130.8,367.3,128.3z"
		/>
	<path class="st1" d="M323.8,130.7c1.8,0,3.7,0,5.5,0c0,83.2,0,166.3,0,249.5c-1.8-0.1-3.7-0.2-5.5-0.2
		C323.9,296.8,323.8,213.7,323.8,130.7z"/>
	<path class="st1" d="M484.2,133.9c2.2,0,4.4,0,6.6,0c0,2.5,0,5,0.1,7.5c-2.3,0-4.6,0-6.9,0C484,138.9,484,136.4,484.2,133.9z"/>
	<path class="st1" d="M495.6,133.9c2.2,0,4.5,0,6.8,0c0,2.5,0,5,0,7.4c-2.3,0-4.6,0-6.8,0C495.6,138.9,495.6,136.4,495.6,133.9z"/>
	<path class="st1" d="M543.3,133.9c2.3,0,4.6,0,6.9,0c0,2.5,0,5,0,7.4c-2.3,0-4.6,0-6.9,0C543.3,138.8,543.3,136.4,543.3,133.9z"/>
	<path class="st1" d="M555.1,133.9c2.2,0,4.5,0,6.7,0c0,2.5,0,4.9,0,7.4c-2.3,0-4.7,0-7,0C554.9,138.8,555,136.3,555.1,133.9z"/>
	<path class="st1" d="M752.8,133.8c2.3,0,4.5,0,6.8,0c0,2.5,0,4.9,0,7.4c-2.3,0-4.5,0-6.8,0C752.8,138.7,752.8,136.2,752.8,133.8z"
		/>
	<path class="st1" d="M764.5,133.8c2.3,0,4.5,0,6.8,0c0,2.5,0,4.9,0,7.4c-2.3,0-4.5,0-6.8,0C764.5,138.7,764.5,136.2,764.5,133.8z"
		/>
	<path class="st1" d="M508.9,134.8c2.3,0,4.6,0,6.9,0c0,14.1,0,28.3,0,42.4c-2.3,0-4.6,0-6.9,0C508.9,163,508.9,148.9,508.9,134.8z"
		/>
	<path class="st1" d="M651.4,134.8c2.3,0,4.5,0,6.8,0c-0.1,10.8,0.1,21.6-0.1,32.3c0.2,5.1-3.9,9.7-9,9.9c-6.7,0.4-13.5,0-20.2,0.1
		c0-2.5,0-5,0-7.5c3.1,0,6.3,0,9.4,0c-2.7-10.1-5.2-20.2-7.8-30.2c2.4,0,4.9,0,7.4,0c2.6,10.2,5.1,20.5,7.8,30.6
		c2.4-0.9,5.2-2.1,5.4-5.1C651.7,155,651.2,144.9,651.4,134.8z"/>
	<path class="st1" d="M664.5,134.7c2.3,0,4.6,0,6.9,0c0,14.1,0,28.3,0,42.4c-2.3,0-4.6,0-6.9,0C664.5,163,664.5,148.9,664.5,134.7z"
		/>
	<path class="st1" d="M724.2,134.8c2.3,0,4.6,0,6.9,0c0.1,9.8-0.1,19.5,0.1,29.3c0,2.4,1.4,5,4,5.2c4.8,0.6,9.8,0.1,14.6,0.3
		c-2.1-5.7-2.4-12.6,1.4-17.6c4.1-5.9,13.1-7.1,18.8-2.9c8,6,8.1,19.9-0.1,25.8c-3.7,2.7-8.5,2.3-12.8,2.3
		c-8.1-0.1-16.2,0.2-24.2-0.1c-5.2-0.2-8.6-5.4-8.5-10.2C724.1,156.2,724.3,145.5,724.2,134.8 M759.3,154c-6.3,3.5-5,15.6,2.6,16.4
		c5.3,0.3,7.7-6,6.7-10.5C768.2,155.6,763.5,151.9,759.3,154z"/>
	<path class="st1" d="M877.1,134.7c2.2,0,4.5,0,6.8,0c0,14.1,0,28.3,0,42.4c-2.3,0-4.5,0-6.8,0C877.1,163,877.1,148.9,877.1,134.7z"
		/>
	<path class="st1" d="M347.6,150.1c1.2-4.3,4.6-8.3,9.3-8.9c5.9-0.7,11.8-0.2,17.7-0.3c0.1,7.4-0.1,14.7,0.1,22.1
		c0,3.1,2.1,6.3,5.4,6.5c3.9,0.3,7.8,0.3,11.7,0c2.4-0.1,3.6-2.7,3.6-4.8c0.2-5.8,0-11.6,0.1-17.3c2.3,0,4.6,0,6.9,0
		c-0.3,7.5,0.8,15.1-1.1,22.4c15-0.2,30,0,45-0.1c-0.5-5.7-2.8-12.1-8.6-14.4c-5.7-2.6-12,0.1-16.1,4.2c-1.1-1.9-2.2-3.9-3.3-5.8
		c3.2-2.6,6.6-5.1,10.7-5.9c7.3-1.6,15.7,1,20,7.3c3.1,4.2,4,9.5,4.5,14.6c4.1-0.1,8.2,0.2,12.4-0.2c2.1-0.3,3.2-2.5,3.3-4.4
		c0.3-5.9,0-11.8,0.1-17.7c2.3,0,4.6,0,6.9,0c-0.3,7.5,0.8,15.1-1.1,22.4c5.6-0.2,11.2,0.2,16.8-0.2c2,0,3.6-1.6,3.6-3.6
		c0.4-6.2,0.1-12.4,0.2-18.6c2.3,0,4.6,0,6.9,0c-0.2,7.2,0.4,14.5-0.3,21.7c-0.4,4.6-4.5,8.4-9.2,8.1c-38,0.1-76.1,0-114.1,0
		c-5.7,0.5-10.1-4.2-11.8-9.2c-1.6,1.6-3.1,3.4-5.3,4.1c-4.8,1.3-10.2-1-12.7-5.3C346.3,161.8,346.1,155.6,347.6,150.1 M355.6,149.6
		c-3,4.6-2.9,11.7,1.4,15.4c3.1,2.6,7.8,0.6,9.2-2.8c2.2-4.9,1-10.4,1.3-15.6C363.5,146.9,358.2,145.7,355.6,149.6z"/>
	<path class="st1" d="M528.7,147.3c2.3,0,4.6,0,6.9,0c0,7.5,0,14.9,0,22.4c5.1-0.1,10.2,0.2,15.3-0.1c2.4,0.1,3.9-2.3,3.9-4.5
		c0.3-5.9,0-11.8,0.1-17.7c2.3,0,4.6,0,7,0c-0.3,7.5,0.9,15.1-1.1,22.4c5.3-0.2,10.6,0.3,15.9-0.2c2.7-0.4,3.7-3.5,3.8-5.8
		c0.2-5.4,0-10.9,0.1-16.3c2.3,0,4.7,0,7,0c-0.3,7.5,0.7,15.1-0.9,22.4c3.6-0.4,9.1,1.2,10.8-3.2c1.2-6.3,0.3-12.8,0.5-19.2
		c2.3,0,4.7,0,7,0c-0.3,7.5,0.7,15.1-0.9,22.4c3.7-0.3,9.8,1.3,10.9-3.7c0.9-6.2,0.2-12.5,0.4-18.7c2.3,0,4.6,0,7,0
		c-0.3,6.9,0.8,13.9-0.8,20.6c-1.3,5.2-5.9,9.7-11.5,9.3c-24.9,0-49.7,0-74.6,0c-1,2.8-2,5.9-4.5,7.8c-3,2.5-7,2.9-10.7,3.4
		c0-2.1-0.1-4.2-0.1-6.3c3.7-0.4,7.8-2.2,8.2-6.5C529.1,166.2,528.5,156.7,528.7,147.3z"/>
	<path class="st1" d="M788.1,147.3c5.4-0.2,11.2,0.3,15.5,4.1c5.5,4.3,6.9,11.7,7.1,18.3c4.6-0.1,9.3,0.2,13.9-0.2
		c2.3-0.2,3.7-2.5,3.9-4.6c0.5-4.8,0.1-9.6,0.2-14.4c2.3,0,4.6,0,7,0c0,2.9,0,5.9-0.1,8.8c3.5-4.8,7.8-9.3,13.5-11.2
		c5.9-2,13.5-0.7,17.1,4.8c4.6,7.1,4.2,16.1,3.8,24.3c-29.5,0-59.1,0-88.6,0c0-2.5,0-5,0-7.5c7.5,0,14.9,0,22.4,0
		c-0.4-4.3-0.9-9.1-4.3-12.2c-3-3-7.5-3.1-11.4-3.4C788.2,151.8,788.1,149.5,788.1,147.3 M849.4,154.7c-6.6,2.6-10.7,8.8-13.8,14.9
		c9.2,0.1,18.4,0.1,27.6,0c-0.2-4.6-0.3-9.8-3.6-13.3C857.1,153.5,852.8,153.2,849.4,154.7z"/>
	<path class="st1" d="M698.9,155.9c2.7-3.9,8.2-5.5,12.6-3.7c2.7,1.1,4.3,3.6,6,5.7c-1.6,1.2-3.2,2.5-4.8,3.7c-1.6-2-3.8-4.5-6.6-3
		c-3.8,2.3-3.1,7.4-1.8,10.9c4.5,0.1,9,0,13.5,0c0,2.5,0,5,0,7.5c-8.7,0-17.3,0-26,0c0-2.5,0-5,0-7.5c1.8,0,3.5,0,5.3,0
		C696.1,165.1,695.9,159.8,698.9,155.9z"/>
	<path class="st1" d="M383.8,184.2c2.3,0,4.6,0,6.9,0c0,2.5,0,4.9,0,7.4c-2.3,0-4.6,0-6.9,0C383.8,189.1,383.8,186.6,383.8,184.2z"
		/>
	<path class="st1" d="M395.4,184.1c2.3,0,4.5,0,6.8,0c0,2.5,0,4.9,0,7.4c-2.3,0-4.5,0-6.8,0C395.4,189.1,395.4,186.6,395.4,184.1z"
		/>
	<path class="st1" d="M429.5,184.1c2.3,0,4.6,0,6.9,0c0,2.5,0,4.9,0,7.4c-2.3,0-4.6,0-6.9,0C429.5,189.1,429.5,186.6,429.5,184.1z"
		/>
	<path class="st1" d="M457.5,184.1c2.3,0,4.6,0,6.8,0c0,2.5,0,5,0,7.4c-2.3,0-4.6,0-6.9,0C457.5,189.1,457.5,186.6,457.5,184.1z"/>
	<path class="st1" d="M469.2,184.2c2.2,0,4.5,0,6.7,0c0,2.5,0,4.9,0,7.4c-2.2,0-4.5,0-6.8,0C469.2,189.1,469.2,186.6,469.2,184.2z"
		/>
	<path class="st1" d="M118.2,209.7c22.8,0,45.6,0,68.5,0c0,3.8,0,7.6,0,11.4c-19.5,0-38.9,0-58.4,0c0,1.7,0,3.5,0,5.2
		c4.9,0,9.7,0,14.6,0c0,9.3,0,18.7,0,28c-8.2,0-16.4,0-24.6,0C118.2,239.5,118.2,224.6,118.2,209.7 M128.2,237.8c0,1.7,0,3.4,0,5.1
		c1.5,0,3,0,4.5,0c0-1.7,0-3.4,0-5.1C131.2,237.8,129.7,237.8,128.2,237.8z"/>
	<path class="st1" d="M191.2,209.7c3.4,0,6.7,0,10.1,0c0,3.8,0,7.6,0,11.4c-3.4,0-6.7,0-10,0C191.2,217.4,191.2,213.6,191.2,209.7z"
		/>
	<path class="st1" d="M147.4,226.4c3.4,0,6.7,0,10.1,0c0,3.8,0,7.6,0,11.4c-3.3,0-6.7,0-10,0C147.4,234,147.4,230.2,147.4,226.4z"/>
	<path class="st1" d="M161.9,226.4c8.2,0,16.5,0,24.7,0c0,3.8,0,7.6,0,11.4c-4.8,0-9.7,0-14.5,0c0,1.7,0,3.4,0,5.1
		c4.8,0,9.7,0,14.5,0c0,3.8,0,7.7,0,11.5c-8.2,0-16.5,0-24.7,0C161.9,245.1,161.9,235.7,161.9,226.4z"/>
	<path class="st1" d="M191.2,226.4c3.4,0,6.7,0,10.1,0c0,20.4,0,40.8,0,61.2c-3.4,0-6.7,0-10.1,0
		C191.2,267.2,191.2,246.8,191.2,226.4z"/>
	<path class="st1" d="M147.4,242.9c3.3,0,6.7,0,10,0c0,3.8,0,7.7,0,11.5c-3.4,0-6.7,0-10.1,0C147.4,250.6,147.4,246.7,147.4,242.9z"
		/>
	<path class="st1" d="M118.2,259.6c8.2,0,16.4,0,24.6,0c0,5.5,0,11.1,0,16.7c1.6,0,3.1,0,4.6,0c0-5.6,0-11.1,0-16.6
		c3.4,0,6.7,0,10.1,0c0,5.5,0,11.1,0,16.7c1.5,0,3,0,4.5,0c0-5.5,0-11.1,0-16.6c8.2,0,16.5,0,24.7,0c0,9.3,0,18.7,0,28
		c-22.8,0-45.7,0-68.5,0c0-3.8,0-7.5,0-11.3c4.9,0,9.7,0,14.6,0c0-1.7,0-3.5,0-5.2c-4.8,0-9.7,0-14.5,0
		C118.2,267.3,118.2,263.5,118.2,259.6 M172.1,271.1c0,1.7,0,3.4,0,5.2c1.5,0,3.1,0,4.6,0c0-1.7,0-3.5,0-5.2
		C175.1,271.1,173.6,271.1,172.1,271.1z"/>
	<path class="st1" d="M641.2,276.9c26.6,0,53.2,0,79.8,0c2.8,0.1,6.1-0.5,8.4,1.7c-29.4,0.7-58.8,0.1-88.3,0.3
		C641.1,278.4,641.2,277.4,641.2,276.9z"/>
	<path class="st1" d="M753.6,277c44-0.1,88.1,0,132.2-0.1c0,0.5,0,1.5,0,1.9c-42.3,0-84.6,0-126.9,0
		C756.9,279.1,755.2,277.8,753.6,277z"/>
	<path class="st1" d="M356.1,278.9c18.4,0,36.8,0,55.2,0c0,18.5,0,36.9,0,55.4c-10.9,0-21.9,0-32.8,0c0,3.5,0,7,0,10.4
		c11,0,21.9,0,32.9,0c0,7.5,0,15,0,22.5c-18.4,0-36.8,0-55.2,0c0-18.5,0-37,0-55.4c10.9,0,21.8,0,32.8,0c0-3.4,0-6.9,0-10.3
		c-10.9,0-21.9,0-32.8,0C356.2,293.9,356.1,286.4,356.1,278.9z"/>
	<path class="st1" d="M426.4,278.9c18.4,0,36.8,0,55.3,0c0,29.4,0,58.9,0,88.3c-18.4,0-36.9,0-55.3,0
		C426.4,337.7,426.4,308.3,426.4,278.9 M448.8,301.4c0,14.4,0,28.9,0,43.3c3.5,0,7,0,10.4,0c0-14.4,0-28.9,0-43.3
		C455.7,301.4,452.2,301.4,448.8,301.4z"/>
	<path class="st1" d="M496.6,278.9c18.4,0,36.9,0,55.3,0c0,29.4,0,58.9,0,88.3c-18.4,0-36.9,0-55.3,0c0-7.5,0-15,0-22.5
		c11,0,21.9,0,32.9,0c0-3.5,0-7,0-10.4c-11,0-21.9,0-32.9,0c0-7.5,0-15,0-22.5c11,0,21.9,0,32.9,0c0-3.5,0-6.9,0-10.4
		c-11,0-22,0-32.9,0C496.6,293.9,496.5,286.4,496.6,278.9z"/>
	<path class="st1" d="M566.8,278.9c18.5,0,36.9,0,55.4,0c0,29.4,0,58.9,0,88.3c-18.5,0-36.9,0-55.4,0
		C566.8,337.7,566.8,308.3,566.8,278.9 M589.3,301.4c0,14.4,0,28.8,0,43.3c3.5,0,6.9,0,10.4,0c0-14.4,0-28.9,0-43.3
		C596.2,301.4,592.7,301.4,589.3,301.4z"/>
	<path class="st1" d="M641.1,281.9c29.5,0,59.1,0,88.7,0c0,0.5-0.1,1.4-0.2,1.9c-29.5-0.1-59,0-88.5,0
		C641.1,283.3,641.1,282.4,641.1,281.9z"/>
	<path class="st1" d="M760.4,282c41.8-0.2,83.7,0,125.5-0.1c0,0.5,0,1.4-0.1,1.9c-40.3,0-80.6,0-120.8,0
		C763.2,284,761.8,282.8,760.4,282z"/>
	<path class="st1" d="M640.2,287c29.4-0.3,58.8,0,88.2-0.2c-0.5,0.5-1.4,1.5-1.9,2c-27.5,0-55.1,0-82.6,0
		C642.3,289,641,288.3,640.2,287z"/>
	<path class="st1" d="M766.5,286.9c39.8-0.2,79.6,0,119.4-0.1c0,0.5,0,1.5-0.1,2c-38,0-75.9,0-113.8,0
		C769.9,289,768.2,287.8,766.5,286.9z"/>
	<path class="st1" d="M641,291.8c24.9,0.1,49.8-0.2,74.7,0.1c-1.1,0.8-2.1,2-3.7,1.7c-23.7,0-47.3,0-71,0
		C641.1,293.2,641.1,292.3,641,291.8z"/>
	<path class="st1" d="M782.5,291.7c34.4,0.3,68.9,0,103.3,0.1c0,0.5-0.1,1.4-0.1,1.9c-29.9,0-59.9,0-89.8,0
		C791.4,294.1,787,292.6,782.5,291.7z"/>
	<path class="st1" d="M640.1,297c22.6-0.5,45.2,0,67.8-0.2c2.4,0.1,5.2-0.5,7.1,1.6c-22.7,0.7-45.4,0.1-68,0.3
		C644.6,298.5,641.7,299.3,640.1,297z"/>
	<path class="st1" d="M794.2,296.9c30.6-0.3,61.1-0.1,91.7-0.1c0,0.5-0.1,1.4-0.1,1.9c-28.9,0-57.9,0-86.8,0
		C797.2,298.8,795.7,297.7,794.2,296.9z"/>
	<path class="st1" d="M773,301.9c0.4-1.4,0.8-2.9,1.1-4.4c0.5,1.5,1,2.9,1.5,4.4c2.5-2.2,5.8-2.1,8.7-0.8c-2.2,0.6-4.3,1.2-6.5,1.9
		c2,0.2,4.1,0.1,6,0.9c1.6,1,2.7,2.7,3.9,4.1c-2.4-1.2-4.9-2.4-7.5-3.3c1.6,1.4,3.5,2.5,4.9,4.2c1.4,2,1.1,4.6,1.2,7
		c-1-3.6-2.9-6.9-6.2-8.8c1,1.8,2.3,3.5,3.1,5.5c0.9,2.5,0.2,5-0.2,7.5c-0.5-3.5-1.3-6.9-3.4-9.8c0.9,4.1,0.8,8.3-1.2,12
		c-0.1-3.6,0.1-7.4-2.4-10.3c-0.8,7.6-0.8,15.4,0.3,23c4.1-2.9,8.5-5.7,13.6-6.2c4.5-0.8,9.1,0.5,13.2,2.4c-4-0.6-8.1-1.4-12.1-0.4
		c-5.5,1.1-10.2,4.4-14.6,7.7c3,2.8,6.1,5.6,9.4,8.2c0.7-0.3,2-1,2.7-1.3c0.6,0.9,1.2,1.7,1.7,2.6c-0.3,1.9-2.4,3.1-4.1,2.2
		c-4.7-2.2-7.9-6.5-11.8-9.8c-3.7,3.3-7,7.2-11.4,9.6c-1.7,1-3.6,0.3-4.7-1.2c0.3-1.3,1.1-2.4,1.8-3.5c0.7,0.3,2.1,1,2.8,1.3
		c3.2-2.7,6.2-5.4,9.3-8.2c-4.5-3.5-9.4-6.9-15.2-7.9c-3.9-0.8-7.8,0-11.6,0.5c4.3-1.9,9-3.2,13.7-2.3c4.9,0.6,9.2,3.4,13.2,6.1
		c0.9-7.6,1.3-15.4,0.1-23c-2.5,3.1-2.1,7-2,10.7c-2.1-3.7-2.4-8-1.7-12.2c-1.9,2.9-2.7,6.3-2.8,9.8c-0.3-1.8-0.8-3.6-0.9-5.4
		c0.1-2.9,2.1-5.3,3.3-7.8c-3.2,2-4.9,5.3-6.2,8.7c0.3-2,0.2-4.1,0.9-6.1c1.2-2.2,3.5-3.5,5.2-5.2c-1.9,0.8-5.6,2.5-7.5,3.3
		c2-3.4,5.5-4.8,9.1-5.4c-1.9-0.5-3.8-0.9-5.7-1.4C767.1,299.7,770.3,299.8,773,301.9z"/>
	<path class="st1" d="M640.1,301.9c24-0.5,47.9,0,71.9-0.2c2.8,0,6-0.4,8.4,1.6c-24.4,0.8-48.9,0.1-73.3,0.4
		C644.6,303.5,641.7,304.3,640.1,301.9z"/>
	<path class="st1" d="M798.8,301.9c29-0.3,58.1-0.1,87.1-0.1c0,0.5-0.1,1.4-0.1,1.9c-25.9,0-51.9,0-77.8,0
		C804.9,303.5,801.3,304.4,798.8,301.9z"/>
	<path class="st1" d="M641,306.7c25.7-0.1,51.3,0,77,0c1.8-0.1,3.4,0.4,4.9,1.6c-13.9,0.7-27.9,0.1-41.9,0.3c-13.3,0-26.7,0-40,0
		L641,306.7z"/>
	<path class="st1" d="M802.1,306.9c21.6-0.5,43.3-0.1,64.9-0.2c6.6,0.1,13.2-0.2,19.8,0.2c-1,1.1-2.2,1.9-3.8,1.6
		c-25.7,0-51.4,0-77.1,0C804.4,308.8,803.3,307.6,802.1,306.9z"/>
	<path class="st1" d="M641,311.6c25.7-0.1,51.4,0,77.1,0c2.7,0,5.7-0.4,7.9,1.6c-28.3,0.6-56.7,0.1-85,0.3V311.6z"/>
	<path class="st1" d="M804.5,311.9c27.1-0.6,54.2-0.1,81.4-0.2l0,1.8c-25.6,0.1-51.3,0-76.9,0C807.3,313.6,805.8,313,804.5,311.9z"
		/>
	<path class="st1" d="M641,316.6c26.7-0.1,53.3,0,80-0.1c2.9,0.1,6.2-0.6,8.6,1.6c-29.5,0.5-59.1,0.1-88.6,0.2V316.6z"/>
	<path class="st1" d="M807,316.9c26.3-0.6,52.6-0.1,78.9-0.2l0,1.8c-24.6,0-49.2,0-73.8,0C810.1,318.8,808.5,317.9,807,316.9z"/>
	<path class="st1" d="M641,321.6c27-0.1,54.1,0,81.1,0c3.8,0.3,8-1,11.2,1.6c-30.8,0.5-61.6,0.1-92.3,0.2V321.6z"/>
	<path class="st1" d="M810,321.8c25.3-0.5,50.6-0.1,75.9-0.2l0,1.8c-23.7,0-47.3,0-70.9,0C813.1,323.5,811.5,323,810,321.8z"/>
	<path class="st1" d="M814.7,326.7c21.8-0.5,43.6,0,65.3-0.2c2.3,0.1,5.2-0.6,6.8,1.7c-21.9,0.6-43.9,0.1-65.8,0.3
		C818.7,328.6,816.6,327.8,814.7,326.7z"/>
	<path class="st1" d="M641,326.5c30.3-0.1,60.7,0,91,0c1.7-0.1,3.2,0.5,4.5,1.7c-31.8,0.5-63.7,0.1-95.6,0.2V326.5z"/>
	<path class="st1" d="M826.5,331.4c19.8,0.2,39.6,0,59.3,0.1c0,0.5,0.1,1.4,0.1,1.9c-15.3,0.1-30.7,0-46,0
		C835.4,333.5,831,331.6,826.5,331.4z"/>
	<path class="st1" d="M641,331.5c31-0.1,62.1,0,93.1-0.1c1.8-0.2,3.5,0.5,5,1.7c-32.7,0.5-65.4,0.1-98.1,0.2V331.5z"/>
	<path class="st1" d="M640.1,338.1c1-1.1,2.3-2,3.9-1.7c31.8,0,63.5,0,95.3,0c0.1,0.5,0.4,1.4,0.5,1.9
		C706.5,338.1,673.3,338.5,640.1,338.1z"/>
	<path class="st1" d="M835.2,338.1c1-1,2.2-2,3.8-1.7c15.6,0,31.2,0,46.9,0c0,0.5,0.1,1.4,0.2,1.9
		C869,338.2,852.1,338.5,835.2,338.1z"/>
	<path class="st1" d="M640.1,343.1c1-1.1,2.3-2,3.8-1.7c31,0,62,0,93.1,0c1.6-0.1,3.1,0.2,4.1,1.7c-23,0.4-46.1,0.1-69.1,0.2
		C661.4,343.2,650.7,343.5,640.1,343.1z"/>
	<path class="st1" d="M834.7,343.1c1-1.5,2.6-1.8,4.3-1.7c15.6,0,31.2,0,46.8,0c0,0.5,0.1,1.4,0.1,1.9
		C868.8,343.2,851.8,343.5,834.7,343.1z"/>
	<path class="st1" d="M640.1,348c0.9-1.2,2.2-2,3.8-1.7c32,0,64.1,0,96.1,0c2.2-0.2,4.2,0.9,6.2,1.8
		C710.9,348.2,675.5,348.4,640.1,348z"/>
	<path class="st1" d="M832.5,348.1c2.3-2.4,5.6-1.7,8.5-1.8c14.9,0,29.8,0,44.7,0c0,0.5,0.1,1.4,0.1,1.9
		C868.1,348.1,850.3,348.4,832.5,348.1z"/>
	<path class="st1" d="M641.1,351.3c35.9,0,71.9,0,107.8,0c0.3,0.5,0.8,1.4,1.1,1.9c-36.3,0-72.6,0-108.9,0
		C641.1,352.7,641.1,351.7,641.1,351.3z"/>
	<path class="st1" d="M821.6,353.1c2.7-1,5.4-2,8.3-1.9c18.6,0,37.2,0,55.8,0c0,0.5,0.1,1.4,0.1,1.9
		C864.4,353.1,843,353.2,821.6,353.1z"/>
	<path class="st1" d="M641.1,356.2c36.9,0,73.7,0,110.6,0c0.3,0.5,0.9,1.4,1.2,1.9c-37.3,0-74.6,0-111.9,0
		C641.1,357.7,641.1,356.7,641.1,356.2z"/>
	<path class="st1" d="M797.5,358.1c9-2.3,18.3-1.8,27.5-1.8c20.3,0,40.5,0,60.8,0c0,0.5,0,1.4,0.1,1.9
		C856.4,358.1,826.9,358.3,797.5,358.1z"/>
	<path class="st1" d="M641.1,361.2c38,0,76,0,113.9,0c0.3,0.5,0.8,1.5,1.1,1.9c-38.3,0-76.7,0-115,0
		C641.1,362.6,641.1,361.7,641.1,361.2z"/>
	<path class="st1" d="M790.5,363c1.3-0.9,2.6-2.1,4.3-1.8c30.3,0,60.6,0,90.9,0c0,0.5,0,1.4,0,1.9C854,363,822.3,363.2,790.5,363z"
		/>
	<path class="st1" d="M641.1,366.1c38.3,0,76.7,0,115,0c1.7-0.3,2.9,0.9,4.2,1.9c-39.7,0.2-79.4,0-119.1,0.1
		C641.1,367.6,641.1,366.6,641.1,366.1z"/>
	<path class="st1" d="M764,368.1c0.2-0.5,0.6-1.5,0.8-2c7.1,0.3,14.3-0.7,21.4,0.8c2.2-0.5,4.5-0.8,6.8-0.8c30.9,0,61.8,0,92.8,0
		c0,0.5,0,1.5,0,2C845.2,368.1,804.6,368.1,764,368.1z"/>
</g>
<g id="_x23_52b7c3ff">
	<path class="st2" d="M9.7,173.2c7.8-5.4,15.6-10.9,23.5-16.1c2.3,1.5,4.5,3.2,6.5,5.2c9.1,9.2,18,19,29.2,25.8
		c12.9,8.1,27.7,12.6,42.3,16.2c0,10.1,0,20.1,0,30.2c-31.7-4.2-61.6-19.2-84.7-41.2C20.2,187.3,14.7,180.4,9.7,173.2z"/>
	<path class="st2" d="M277.1,164.1c2.1-2.4,3.9-5.4,6.9-6.7c2.3,0,4.1,1.6,5.9,2.8c6.3,4.8,13.1,8.9,19.8,13.2
		c-6.2,6.8-12.2,14-18.8,20.4c-10.3,9.6-21.5,18.7-34.4,24.5c-4.7,2.2-9.9,3.8-14.1,6.9c-1.8,1.3-2.9,3.4-2.9,5.6
		c-0.4,6.8-0.1,13.6-0.1,20.3c-10.6-2.2-21.3-4.4-31.9-6.6c0-13.2,0-26.5,0-39.7c11.1-4.1,22.5-7.1,33.1-12.5
		C254.2,185.4,267,176,277.1,164.1z"/>
	<path class="st2" d="M708.3,202.4c4.4-1.4,9.4,2.9,8.1,7.5c-1.2,5.1-8.6,6.3-11.6,2.3C701.8,208.9,704.1,203.2,708.3,202.4z"/>
	<path class="st2" d="M836.9,203.8c3.9,0.4,9.4-0.5,11.3,3.9c1.6,4.6,0.8,9.6,1,14.4c-0.2,6.9,0.7,14-1.2,20.7
		c-1.2,4.5-4.8,8.3-9.3,9.7c-7.4,2.4-16.5,1.9-22.3-3.9c-7.8-7.1-7.6-20.3-0.8-28c5.3-5.9,15.8-7.2,21.4-0.9
		C836.8,214.4,836.8,209.1,836.9,203.8 M827.4,225.6c-5,2.4-5.2,9.2-3.7,13.8c1.3,4.6,8.2,6.8,11.3,2.7c2.3-3.8,2-8.7,0.6-12.8
		C834.5,226,830.6,224.5,827.4,225.6z"/>
	<path class="st2" d="M348.1,213.1c4.5-5.5,12.1-7.1,18.9-6.4c4.3,0.4,9.1,1.9,11.3,5.9c1.2,2.6,0.9,5.6,1.1,8.5
		c-5.7-3.8-13.1-5.7-19.8-3.4c-2.2,0.7-3.3,4.3-0.9,5.5c5.6,2.9,12.6,2.3,17.8,6.3c5.8,4.5,5,14.1,0.1,19
		c-4.5,4.6-11.5,5.5-17.6,5.1c-4.4-0.3-9.5-1.6-11.8-5.7c-1.3-2.8-0.9-5.9-1.2-8.9c5.8,3.7,13.1,5.8,19.8,3.7c2.5-0.8,3-4.9,0.7-6.1
		c-5.8-3-13.2-2.2-18.4-6.7C343.3,225.6,344.1,217.7,348.1,213.1z"/>
	<path class="st2" d="M387.3,215.2c1.6-4.9,6.9-7.4,11.8-7.8c0,3.1,0,6.1,0,9.2c3.6,0,7.1,0,10.7,0c-0.4,2.7,0.4,6.1-2,8.2
		c-2.4,2.2-5.8,1.5-8.7,1.8c0.2,4.9-0.5,10,0.4,14.9c2,3.3,6.5,1.4,9.6,1.3c-0.3,3.2,0.5,7.7-3.2,9.3c-6.2,2.8-15.5,1.2-18.1-5.8
		c-1.7-5.2-0.8-10.9-1-16.3C387,225.1,386.3,220.1,387.3,215.2z"/>
	<path class="st2" d="M479.2,216.2c1.1-5.5,6.8-8.3,11.9-8.8c0,3.1,0,6.1,0,9.2c3.6,0,7.2,0,10.8,0c-0.4,2.8,0.4,6.3-2.1,8.3
		c-2.4,2-5.8,1.4-8.7,1.7c0.2,4.9-0.5,9.9,0.4,14.8c2,3.4,6.6,1.4,9.7,1.3c-0.3,3.3,0.4,7.9-3.4,9.3c-5.4,2.3-12.9,1.5-16.6-3.4
		c-3.1-4.3-2-9.8-2.2-14.7C479.3,228,478.5,222.1,479.2,216.2z"/>
	<path class="st2" d="M645.1,210.1c1.9-2.2,5.1-2.4,7.9-2.5c7.2,0,14.4,0.1,21.6,0c-0.1,3.5,0.2,8.4-4,9.8c-4.9,1-9.9,0.3-14.9,0.4
		c0,2.8,0,5.5,0,8.2c5.4,0,10.7,0,16.1,0c-0.2,3.2,0.3,7.8-3.5,9.1c-4,0.8-8.2,0.3-12.3,0.4c0,5.7,0,11.4,0,17.2
		c-3.3-0.1-6.9,0.5-10-0.8c-2.6-1.2-2.8-4.3-2.8-6.8c0-9,0.1-18,0-27C643.4,215.4,643.2,212.3,645.1,210.1z"/>
	<path class="st2" d="M414.6,226.1c0.6-5.3,5.1-9.8,10.4-10.4c3.8-0.5,8.7-0.3,11,3.2c0.9,2.2,0.6,4.7,0.8,7
		c-3.4-0.4-8.6-1.6-9.9,2.8c-1,8-0.1,16.1-0.4,24.2c-3.4-0.4-7.4,0.3-10-2.4c-2.4-2.5-2-6.3-2.1-9.6
		C414.5,236,414.2,231.1,414.6,226.1z"/>
	<path class="st2" d="M442.6,219.6c3.5-3.4,8.7-4.1,13.3-4.1c4.8,0,10.1,1.5,13.1,5.5c3.5,4.5,3,10.7,3.1,16.1
		c-0.2,4.8-0.4,10.4-4.4,13.7c-3.6,2.8-8.4,2.9-12.7,3c-4.7,0-9.8-1.1-13.1-4.7c-4.3-4.5-3.3-12.9,2.1-16.1c4.9-3,10.9-2.7,16.4-3
		c-0.7-1.6-0.7-4.1-2.8-4.5c-5.9-1.6-12.5-0.4-17.3,3.4C440.7,225.8,440.1,222,442.6,219.6 M452.8,238.8c-2.5,1-2.2,5.3,0.5,5.8
		c2,0.5,4.7,0.7,6.2-1.1c0.8-1.8,0.8-3.9,1.1-5.9C457.9,238,455.2,237.9,452.8,238.8z"/>
	<path class="st2" d="M511.9,219.9c5.9-5.3,15.3-5.7,22.1-1.9c5.3,2.9,7.9,9.6,6.2,15.4c-0.8,2.4-3.1,3.9-5.4,4.6
		c-5.7,1.7-11.8,1-17.6,1.4c1.4,1.7,2.6,3.9,4.9,4.5c5.5,1.5,11.3,0.2,16.6-1.6c-0.2,3.7-0.9,8.2-4.8,9.8c-7.2,3-16.3,2.6-22.5-2.4
		C502.8,242.1,503.6,227.2,511.9,219.9 M517,231.1c4.4,0.1,9,0.4,13-1.8c-1.4-2.6-3.8-5.1-7-4.3C519.5,225,518.1,228.4,517,231.1z"
		/>
	<path class="st2" d="M552.6,219.6c5.4-4,12.8-4.9,19.3-3.3c5,1.2,8.8,5.7,9.6,10.8c0.7,4.9,0.2,9.9,0.5,14.9
		c0.1,4.8,0.8,9.9-1.8,14.2c-3,5.3-9.2,8.2-15.1,8.5c-4.9,0.2-10.4-0.2-14-3.8c-2.5-2.4-2-6.2-2.4-9.3c5.2,2.8,11.6,4.5,17.3,2.4
		c3.5-1.4,3.7-5.5,4-8.7c-6.7,7.5-20.8,3.3-23.3-6.1C544.4,232.2,546.6,223.9,552.6,219.6 M561.3,226.3c-5.1,2.8-3.8,13.3,2.8,13.2
		c5.3,0.4,6.6-6.1,5.3-10C568.7,225.9,564.2,224.7,561.3,226.3z"/>
	<path class="st2" d="M679.8,220.8c2.8-4.3,8.3-5.8,13.2-5.1c2.5,0.3,5.3,1.3,6.3,3.8c0.5,2.1,0.4,4.3,0.6,6.4
		c-2.6-0.1-5.4-0.9-7.8,0.2c-2.5,1.3-2.5,4.5-2.5,7c0,6.6,0.1,13.3,0,19.9c-3.8-0.2-8.8,0.3-10.9-3.6c-1.8-3.8-0.9-8.2-1.1-12.2
		C677.8,231.6,676.5,225.6,679.8,220.8z"/>
	<path class="st2" d="M738.1,216.9c7.9-3.1,19-1,22.7,7.4c1.7,4.2,2,10.5-2.7,12.9c-6.1,2.9-13.2,1.8-19.7,2.2
		c4.4,7.7,14.7,5.2,21.5,2.8c-0.1,3.8-0.8,8.4-4.9,9.9c-8,3.3-18.6,2.4-24.4-4.6C722.9,238,726.4,221.4,738.1,216.9 M742.3,225.4
		c-2.4,0.9-3.1,3.7-4.1,5.7c4.1-0.4,9.2,1.2,12.4-2C750.2,225.2,745.4,224,742.3,225.4z"/>
	<path class="st2" d="M771,222c5.2-6.8,14.9-7.6,22.6-5.5c5.6,1.5,9.6,6.7,10.1,12.4c0.7,7.9,0.1,15.9,0.3,23.8
		c-3.9-0.4-9.7,1.3-11.9-2.9c-1.7-6.8,0.4-14-1.2-20.8c-1.4-4.8-9.6-4.3-10.4,0.7c-0.9,7.7-0.1,15.4-0.4,23.1
		c-3.4-0.3-7.4,0.5-10.3-1.7c-2.7-2.2-2.1-6-2.2-9.1C768,235.3,766.6,227.7,771,222z"/>
	<path class="st2" d="M857.8,220.9c3.5-4,9-5.4,14.1-5.4c3.8,0.1,8.1,0.8,10.7,3.9c2,2.3,1.5,5.7,1.9,8.5
		c-5.7-2.5-14.1-5.6-18.8,0.2c4.8,2.5,10.6,2,15.3,4.8c6.5,4.3,5,15.1-1.7,18.5c-5.9,3.1-13.3,3.2-19.4,0.7
		c-4.3-1.8-4.4-6.9-4.5-10.8c4.7,2.3,10.1,4,15.3,2.8c1.6-0.3,2.7-1.5,2.5-3.2c-4.7-3.3-11.4-1.5-15.8-5.4
		C853.7,231.6,854.3,224.7,857.8,220.9z"/>
	<path class="st2" d="M586,216.5c4.5,0.2,11-1.1,13.2,4c2,6.1,3.5,12.3,6.1,18.2c3.2-7.1,5.2-14.6,6.4-22.3c3,0.1,6.2-0.2,9.1,0.7
		c2.7,1.2,2.2,4.6,1.8,6.9c-2.2,10.6-7.4,20.3-12.8,29.6c-2.4,3.8-4.8,8.1-9,10c-3.4,1.1-7.7,1.4-10.7-0.8c-2.3-1.8-1.9-5-2.4-7.5
		c4.4-0.4,9.6-0.2,12-4.7C593.1,240.2,588.6,228.5,586,216.5z"/>
	<path class="st2" d="M704.2,217.6c4.1,0.3,10.3-0.6,11.9,4.4c1.4,6.5-0.3,13.3,0.9,19.9c1.2,2.3,4.2,1.6,6.3,2.3
		c-0.4,2.7,0.2,6.2-2.4,7.9c-6.1,3.4-15.9,0.1-16.6-7.5C703.8,235.5,704.4,226.5,704.2,217.6z"/>
	<path class="st2" d="M272.4,225.6c8.3-1.6,17.9,0.9,23.1,8c6.5,9,6.4,23.1-2.1,30.9c-4.9,4.6-11.8,6.7-18.3,6.1
		c-9.1-0.8-17.5-7.7-19.6-16.7c-0.9-4.2-0.7-8.7,0.5-12.8C258.1,233.4,264.6,227.3,272.4,225.6z"/>
	<path class="st2" d="M36.4,227.6c6.5-1.7,13.9-0.5,19,4.1c10.4,8.3,11.4,26.1,1.4,35.1c-5.3,4.8-12.9,6.6-19.9,5.8
		c-9.5-1.5-17.4-10-18.3-19.6c-0.6-6.4,0.9-13.2,5.1-18.2C26.9,231,31.6,228.7,36.4,227.6z"/>
	<path class="st2" d="M79.7,247.8c1.4-1.8,3.8-0.8,5.7-0.5c8.8,2.2,17.6,4.3,26.4,6.5c-0.1,11.8,0,23.6-0.1,35.4c0,2,0,4.6-2.2,5.5
		c-3.4,1-7.1,1.2-10.6,2.1c-13.7,3.2-26,10.7-37,19.4c-8.7,6.9-16.3,15.1-24.4,22.6c-1.1,0.8-2.1,2.1-3.6,2.1
		c-2.1-0.5-3.7-2.1-5.5-3.3c-4.2-3.2-8.6-6.1-13.1-8.9c-1.5-1.1-3.3-2-4.1-3.8c-0.2-1.5,0.7-2.8,1.5-4c15-19.4,34.6-35.4,57.3-44.8
		c3.2-1.7,7.6-2.5,9-6.2C80.2,262.6,78.5,255.1,79.7,247.8z"/>
	<path class="st2" d="M207.1,263.2c14.8,2.3,29.1,7.2,42.9,12.8c24.1,10,43.8,28.1,59.5,48.6c-8.2,5.7-16.5,11.2-24.8,16.9
		c-9.4-11.4-20.2-21.6-32.3-30c-12.5-9.1-28.2-11.1-42.3-16.7c-1.5-0.6-3-1.9-2.8-3.7C206.9,281.8,207.2,272.5,207.1,263.2z"/>
	<path class="st2" d="M103.1,333.2c6.1-11.4,9.9-23.9,12.5-36.5c9.9,0,19.7,0,29.6,0c-1.1,15.6-5.9,30.8-12.7,44.9
		c-11,22.5-26.9,43.1-48,56.8c-5.6-8.1-11.1-16.3-16.7-24.4C82.2,363,94.7,349.3,103.1,333.2z"/>
	<path class="st2" d="M165.1,296.6c13.6,0,27.1,0,40.7,0c2.7,18.2,10.2,35.6,21.5,50.1c6.2,8.4,13.9,15.5,21.2,22.8
		c1.8,1.8,4.3,4.5,2.2,7c-4.6,7.3-9.7,14.4-14.5,21.6c-12.2-8.3-23.1-18.6-31.6-30.7c-7.5-10.4-12.9-21.9-18.8-33.2
		c-1.2-2-2.3-4.6-4.8-5.1c-7.4-1.1-15.1,1-22.4-0.8c-0.5-2.1,0.1-4.1,0.5-6.2C161.1,313.7,163.1,305.2,165.1,296.6z"/>
	<path class="st2" d="M153.3,345.4c4.1-1.3,8.5-1.3,12.7-0.7c9.1,1.4,16.2,9.5,17.9,18.4c1.7,9-2.6,18.7-10.4,23.5
		c-11.2,7.1-28.9,2.4-33.3-10.7C135.2,364.4,141.3,349.4,153.3,345.4z"/>
</g>
</svg>
